<svg version="1.0" xmlns="http://www.w3.org/2000/svg"
 width="282.000000pt" height="247.000000pt" viewBox="0 0 282.000000 247.000000"
 preserveAspectRatio="xMidYMid meet">

<g transform="translate(0.000000,247.000000) scale(0.100000,-0.100000)"
fill="#ffffff" stroke="none">
<path d="M0 1235 l0 -1235 1410 0 1410 0 0 1235 0 1235 -1410 0 -1410 0 0
-1235z m1823 1052 c355 -109 583 -387 604 -737 5 -86 3 -97 -15 -120 l-20 -25
-962 0 -962 0 -25 30 c-25 28 -25 33 -20 115 27 373 292 670 672 754 56 12
128 15 355 12 277 -2 287 -3 373 -29z m-890 -1074 c75 -34 90 -37 172 -37 81
0 98 4 170 36 44 19 98 38 121 41 59 10 146 -8 227 -45 62 -29 82 -33 147 -32
63 1 88 7 155 36 153 67 216 60 442 -45 12 -5 27 -23 34 -39 10 -24 9 -35 -4
-63 -21 -45 -56 -54 -116 -30 -25 10 -62 23 -81 31 -19 7 -68 13 -108 14 -60
0 -86 -5 -142 -30 -139 -61 -221 -63 -336 -9 -56 25 -86 33 -155 36 -79 5 -91
3 -156 -26 -146 -64 -235 -65 -379 -5 -83 34 -93 36 -174 32 -67 -4 -96 -10
-137 -31 -29 -15 -65 -27 -81 -27 -37 0 -75 40 -75 80 0 31 36 80 58 80 7 0
43 14 81 31 129 59 208 59 337 2z m1478 -392 c34 -35 37 -74 14 -166 -44 -167
-175 -292 -355 -336 -43 -11 -180 -14 -645 -14 -532 0 -596 2 -654 18 -177 48
-305 179 -340 345 -18 88 -15 120 18 153 l29 29 952 0 952 0 29 -29z"/>
<path d="M1210 2150 c-147 -17 -284 -74 -395 -166 -98 -80 -190 -237 -213
-361 l-9 -53 834 0 835 0 -7 33 c-42 209 -173 383 -357 471 -51 24 -127 52
-168 61 -88 19 -404 29 -520 15z"/>
<path d="M610 662 c0 -27 47 -90 91 -122 91 -66 83 -65 724 -65 538 0 584 1
635 19 30 10 73 31 95 47 41 30 95 102 95 126 0 11 -138 13 -820 13 -777 0
-820 -1 -820 -18z"/>
</g>
</svg>